:version 1.10
:name ASF
:units
  mass 1
  length 1
  angle deg
:documentation
  ASF file generated by Kaydara
:root
  axis xyz
  order  tx ty tz rx ry rz
  position 0 0 0
  orientation 0 0 0
:bonedata
  begin
    id 1
    name RightUpLegDummy
    direction -0.718183 -0.695806 0.00816078
    length 4.904
    axis 0 0 0 xyz
  end
  begin
    id 2
    name RightUpLeg
    direction 3.53373e-006 -0.995788 0.0916898
    length 17.4976
    axis -3.49089 -0.000906625 0.000286804 xyz
    dof rx ry rz
  end
  begin
    id 3
    name RightLeg
    direction 0.00371092 -0.995096 -0.0988419
    length 16.5821
    axis 3.68512 0.0193738 -0.131023 xyz
    dof rx ry rz
  end
  begin
    id 4
    name RightFoot
    direction 0.00079151 -0.46099 0.887405
    length 3.77069
    axis 4.81691e-005 -0.120479 -0.188788 xyz
    dof rx ry rz
  end
  begin
    id 5
    name RightToes
    direction 0 0 0
    length 0
    axis 0 0 0 xyz
    dof rx ry rz
  end
  begin
    id 6
    name SpineDummy
    direction 8.3039e-015 1 4.57515e-016
    length 4.6813
    axis 0 0 0 xyz
  end
  begin
    id 7
    name Spine
    direction -3.15643e-008 0.999988 0.00495137
    length 10.1015
    axis -0.001389 0.000121418 2.40972e-006 xyz
    dof rx ry rz
  end
  begin
    id 8
    name Spine1
    direction 0 0 0
    length 0
    axis -0.001389 0.000121451 1.30017e-006 xyz
    dof rx ry rz
  end
  begin
    id 9
    name HEadDummy
    direction -1.99912e-008 0.999999 0.00127422
    length 3.43865
    axis -0.001389 0.000121451 1.30017e-006 xyz
  end
  begin
    id 10
    name HEad
    direction 0 0 0
    length 0
    axis 0 0 0 xyz
    dof rx ry rz
  end
  begin
    id 11
    name LeftShoulder1Dummy
    direction 0.998891 -0.0402509 -0.0244456
    length 3.5433
    axis -0.001389 0.000121451 1.30017e-006 xyz
  end
  begin
    id 12
    name LeftShoulder1
    direction 0.99951 -0.000327763 0.0313091
    length 4.05031
    axis -0.001389 0.000121451 1.30017e-006 xyz
    dof rx ry rz
  end
  begin
    id 13
    name LeftArm
    direction 0.998561 -0.00100056 -0.0536182
    length 10.3537
    axis -23.1894 0.134784 0.967509 xyz
    dof rx ry rz
  end
  begin
    id 14
    name LeftForeArm
    direction 0.998903 0.00866432 0.046012
    length 8.70632
    axis -9.91835 -0.06569 -0.177794 xyz
    dof rx ry rz
  end
  begin
    id 15
    name LeftHand
    direction 0 0 0
    length 0
    axis 0 0 0 xyz
    dof rx ry rz
  end
  begin
    id 16
    name RightShoulderDummy
    direction -0.998891 -0.0402509 -0.0244414
    length 3.5433
    axis -0.001389 0.000121451 1.30017e-006 xyz
  end
  begin
    id 17
    name RightShoulder
    direction -0.99951 -0.000327807 0.0313133
    length 4.05031
    axis 0.215806 0.000203643 -0.0068026 xyz
    dof rx ry rz
  end
  begin
    id 18
    name RightArm
    direction -0.998573 -0.000999564 -0.053403
    length 10.3947
    axis -23.2009 -0.134239 -0.964101 xyz
    dof rx ry rz
  end
  begin
    id 19
    name RightForeArm
    direction -0.998898 0.00868028 0.0461306
    length 8.68355
    axis -9.92322 0.0658061 0.178868 xyz
    dof rx ry rz
  end
  begin
    id 20
    name RightHand
    direction 0 0 0
    length 0
    axis 0 0 0 xyz
    dof rx ry rz
  end
  begin
    id 21
    name LeftUpLegDummy
    direction 0.718183 -0.695806 0.00816078
    length 4.904
    axis 0 0 0 xyz
  end
  begin
    id 22
    name LeftUpLeg
    direction -6.81752e-006 -0.995793 0.0916337
    length 17.4976
    axis -3.48766 0.00143442 -0.000524262 xyz
    dof rx ry rz
  end
  begin
    id 23
    name LeftLeg
    direction -0.00601358 -0.995091 -0.0987824
    length 16.5821
    axis 3.68178 -0.00654042 -0.000285133 xyz
    dof rx ry rz
  end
  begin
    id 24
    name LeftFoot
    direction -0.00417578 -0.460984 0.887399
    length 3.77069
    axis 1.87233e-006 4.66016e-005 -8.6538e-006 xyz
    dof rx ry rz
  end
  begin
    id 25
    name LeftToes
    direction 0 0 0
    length 0
    axis 0 0 0 xyz
    dof rx ry rz
  end
:hierarchy
  begin
    root RightUpLegDummy SpineDummy LeftUpLegDummy
    RightUpLegDummy RightUpLeg
    RightUpLeg RightLeg
    RightLeg RightFoot
    RightFoot RightToes
    SpineDummy Spine
    Spine Spine1
    Spine1 HEadDummy LeftShoulder1Dummy RightShoulderDummy
    HEadDummy HEad
    LeftShoulder1Dummy LeftShoulder1
    LeftShoulder1 LeftArm
    LeftArm LeftForeArm
    LeftForeArm LeftHand
    RightShoulderDummy RightShoulder
    RightShoulder RightArm
    RightArm RightForeArm
    RightForeArm RightHand
    LeftUpLegDummy LeftUpLeg
    LeftUpLeg LeftLeg
    LeftLeg LeftFoot
    LeftFoot LeftToes
  end

:SAMPLES-PER-SECOND 30
:FULLY-SPECIFIED
:DEGREES
102
root  9.38491 39.3504 13.5529 161.529 62.882 156.683
RightUpLeg  -19.3152 -30.3024 -16.7967
RightLeg  33.0456 -13.7354 -9.68094
RightFoot  -6.37074 -0.243517 4.60881
RightToes  0.000481921 0.542163 -0.142578
Spine  27.6986 0.454879 21.634
Spine1  7.12539 12.9499 -27.7294
HEad  -10.6725 -32.9494 4.05512
LeftShoulder1  4.74829 -10.1311 -28.7435
LeftArm  1.05333 -33.0546 -47.2648
LeftForeArm  -179.875 -56.0858 -165.953
LeftHand  -0.25398 0.0180481 5.50724
RightShoulder  -0.395442 6.01429 -14.378
RightArm  -45.0914 26.7809 -4.80235
RightForeArm  28.533 22.909 3.21161
RightHand  -3.8655 16.7554 -20.5556
LeftUpLeg  -17.2435 2.82359 -4.80057
LeftLeg  8.51021 -2.03911 -4.20076
LeftFoot  6.81609 0.699779 -4.63841
LeftToes  1.06245e-005 4.65869e-005 -8.65517e-006
103
root  9.47367 39.3602 13.5607 159.722 65.0728 154.742
RightUpLeg  -20.0711 -29.1153 -16.2394
RightLeg  32.7663 -12.946 -9.06656
RightFoot  -6.43323 -0.223183 4.18416
RightToes  0.000481921 0.542163 -0.142578
Spine  27.505 0.313802 21.7961
Spine1  7.66622 13.1251 -28.3843
HEad  -10.004 -30.2284 2.856
LeftShoulder1  4.77409 -10.433 -28.1605
LeftArm  0.106396 -33.4689 -48.5128
LeftForeArm  -179.489 -56.4515 -165.792
LeftHand  -0.25398 0.0180481 5.50724
RightShoulder  -0.423802 6.58984 -14.4247
RightArm  -47.5822 35.4832 -3.22089
RightForeArm  33.7035 44.5859 9.07357
RightHand  -3.12413 14.9493 -18.1066
LeftUpLeg  -17.2949 4.17024 -4.51221
LeftLeg  9.05372 -1.10782 -4.01937
LeftFoot  6.23061 0.682549 -4.66012
LeftToes  1.06245e-005 4.65869e-005 -8.65517e-006
104
root  9.6677 39.4255 13.5438 158.908 66.4275 153.984
RightUpLeg  -19.8169 -28.4224 -15.7679
RightLeg  32.005 -12.5849 -8.58776
RightFoot  -6.42531 -0.211107 3.89794
RightToes  0.000481921 0.542163 -0.142578
Spine  27.1974 0.196712 21.8504
Spine1  7.58155 13.0064 -28.7287
HEad  -9.09861 -28.2811 2.48947
LeftShoulder1  4.82188 -10.7204 -27.7953
LeftArm  0.21676 -33.6311 -49.8507
LeftForeArm  -178.829 -57.2767 -165.408
LeftHand  -0.25398 0.0180481 5.50724
RightShoulder  -0.349197 6.77828 -13.4894
RightArm  -45.386 42.3586 3.67773
RightForeArm  48.0829 66.3775 21.4524
RightHand  -1.83402 11.43 -13.0779
LeftUpLeg  -16.76 4.43831 -3.94262
LeftLeg  8.88106 -0.0611889 -3.86397
LeftFoot  6.0063 0.636457 -4.41125
LeftToes  1.06245e-005 4.65869e-005 -8.65517e-006
105
root  9.93349 39.5472 13.5067 159.387 67.013 154.858
RightUpLeg  -18.4386 -28.2175 -15.3451
RightLeg  30.6635 -12.601 -8.18332
RightFoot  -6.29148 -0.205836 3.69589
RightToes  0.000481921 0.542163 -0.142578
Spine  26.6185 0.190933 21.3763
Spine1  7.1957 12.4638 -28.0385
HEad  -7.71852 -26.6492 2.35962
LeftShoulder1  5.00125 -11.1408 -28.0534
LeftArm  0.604172 -33.0712 -50.3515
LeftForeArm  -178.099 -57.7238 -165.224
LeftHand  -0.25398 0.0180481 5.50724
RightShoulder  -0.029267 7.04022 -9.95516
RightArm  -38.7616 47.2017 14.6633
RightForeArm  78.4536 79.03 51.6521
RightHand  -1.05693 8.89536 -9.11714
LeftUpLeg  -15.5585 3.78019 -3.03411
LeftLeg  8.02728 0.988831 -3.78663
LeftFoot  6.06097 0.587398 -4.07905
LeftToes  1.06245e-005 4.65869e-005 -8.65517e-006
106
root  10.2449 39.7216 13.4323 160.998 67.1139 157.144
RightUpLeg  -16.0881 -28.5389 -14.9134
RightLeg  28.5651 -12.7136 -7.62241
RightFoot  -5.95771 -0.212113 3.64643
RightToes  0.000481921 0.542163 -0.142578
Spine  25.2235 0.235421 20.1995
Spine1  7.3706 11.4129 -25.8206
HEad  -6.03671 -24.5682 1.57079
LeftShoulder1  5.20326 -11.4283 -28.7686
LeftArm  0.587375 -31.9009 -49.9149
LeftForeArm  -177.33 -57.374 -165.476
LeftHand  -0.25398 0.0180481 5.50724
RightShoulder  0.6263 8.131 -3.50697
RightArm  -32.5655 48.4465 23.633
RightForeArm  111.198 81.0887 87.2388
RightHand  -0.859205 7.80338 -8.01656
LeftUpLeg  -13.8454 2.82713 -1.91483
LeftLeg  6.6895 1.68307 -3.74885
LeftFoot  6.2663 0.574171 -3.95304
LeftToes  1.06245e-005 4.65869e-005 -8.65517e-006
107
root  10.5773 39.9239 13.303 162.94 67.2263 159.918
RightUpLeg  -13.1744 -29.2381 -14.5111
RightLeg  25.7895 -12.5482 -6.74999
RightFoot  -5.39411 -0.230461 3.72727
RightToes  0.000481921 0.542163 -0.142578
Spine  23.2637 0.27688 18.4631
Spine1  7.96912 9.9779 -22.4891
HEad  -4.02962 -21.7453 0.148167
LeftShoulder1  5.29478 -11.3137 -29.6739
LeftArm  0.185423 -30.5523 -48.9716
LeftForeArm  -176.483 -56.5904 -165.961
LeftHand  -0.25398 0.0180481 5.50724
RightShoulder  1.50882 9.40397 3.75875
RightArm  -30.3858 46.4676 26.9012
RightForeArm  116.541 80.8467 95.5193
RightHand  -0.681877 6.03691 -7.30881
LeftUpLeg  -11.8587 2.19867 -0.793895
LeftLeg  5.21782 1.98273 -3.65248
LeftFoot  6.493 0.584245 -3.9754
LeftToes  1.06245e-005 4.65869e-005 -8.65517e-006
108
root  10.9118 40.1156 13.1134 164.57 67.7663 162.374
RightUpLeg  -10.2238 -30.1123 -14.2103
RightLeg  22.7101 -11.7949 -5.58935
RightFoot  -4.67475 -0.248919 3.72732
RightToes  0.000481921 0.542163 -0.142578
Spine  21.4975 0.323269 16.5907
Spine1  7.95271 8.48403 -19.2128
HEad  -1.39332 -18.4425 -1.06772
LeftShoulder1  5.29872 -11.0519 -30.3501
LeftArm  -0.327076 -29.2237 -47.9919
LeftForeArm  -175.758 -55.9585 -166.341
LeftHand  -0.25398 0.0180481 5.50724
RightShoulder  2.17992 9.6002 9.3363
RightArm  -28.9447 42.7378 28.2622
RightForeArm  125.9 80.355 107.005
RightHand  -0.413497 3.35682 -5.77174
LeftUpLeg  -9.90041 2.17489 0.199675
LeftLeg  4.00148 2.16682 -3.50596
LeftFoot  6.57509 0.563498 -3.82832
LeftToes  1.06245e-005 4.65869e-005 -8.65517e-006
109
root  11.2509 40.2726 12.8735 165.664 68.7928 164.093
RightUpLeg  -7.57184 -30.0807 -14.2208
RightLeg  19.7888 -11.3294 -4.22679
RightFoot  -3.93375 -0.260952 3.61527
RightToes  0.000481921 0.542163 -0.142578
Spine  19.9922 0.345956 14.8567
Spine1  7.08646 7.18244 -16.8327
HEad  1.70196 -14.857 -1.59563
LeftShoulder1  5.33376 -11.0925 -30.4919
LeftArm  -1.04923 -27.8714 -47.0272
LeftForeArm  -175.192 -55.5011 -166.611
LeftHand  -0.25398 0.0180481 5.50724
RightShoulder  2.347 8.68318 12.2081
RightArm  -26.1134 37.5104 32.3138
RightForeArm  147.817 77.3347 132.3
RightHand  -0.240572 1.10012 -4.4632
LeftUpLeg  -8.25974 2.60064 1.02271
LeftLeg  3.27714 2.53062 -3.45123
LeftFoot  6.41582 0.496202 -3.42588
LeftToes  1.06245e-005 4.65869e-005 -8.65517e-006
110
root  11.6033 40.3951 12.6078 165.859 70.1769 164.69
RightUpLeg  -5.26218 -27.0307 -14.7931
RightLeg  17.3738 -13.2716 -2.73819
RightFoot  -3.25389 -0.28216 3.67365
RightToes  0.000481921 0.542163 -0.142578
Spine  18.3245 0.193381 12.9685
Spine1  6.15124 5.91599 -15.1652
HEad  4.53745 -10.8458 -1.63714
LeftShoulder1  5.38291 -11.3231 -30.2523
LeftArm  -2.16561 -26.3879 -46.0192
LeftForeArm  -174.302 -54.7408 -167.042
LeftHand  -0.25398 0.0180481 5.50724
RightShoulder  2.26109 7.66763 13.2913
RightArm  -22.4402 31.1083 39.3347
RightForeArm  162.937 70.3778 151.826
RightHand  -0.186422 -0.154941 -4.12062
LeftUpLeg  -6.94736 3.16525 1.60662
LeftLeg  3.05469 3.18902 -3.54761
LeftFoot  6.08461 0.431882 -3.05987
LeftToes  1.06245e-005 4.65869e-005 -8.65517e-006
111
root  11.9545 40.4882 12.3443 164.621 71.9196 163.875
RightUpLeg  -3.48014 -23.2265 -15.4009
RightLeg  15.4242 -15.3824 -1.60415
RightFoot  -2.68616 -0.320995 3.99655
RightToes  0.000481921 0.542163 -0.142578
Spine  16.6702 -0.214567 10.5312
Spine1  5.46694 4.45085 -13.5115
HEad  6.87196 -6.53378 -1.40066
LeftShoulder1  5.30349 -11.2176 -29.9677
LeftArm  -3.3091 -24.7185 -45.4016
LeftForeArm  -172.877 -53.4931 -167.717
LeftHand  -0.25398 0.0180481 5.50724
RightShoulder  2.23944 7.1052 14.2556
RightArm  -18.1104 24.7938 47.1961
RightForeArm  169.963 62.3026 161.267
RightHand  -0.171624 -0.600223 -4.0566
LeftUpLeg  -5.63365 3.72218 1.94615
LeftLeg  3.16188 4.17451 -3.71878
LeftFoot  5.60883 0.412383 -2.99706
LeftToes  1.06245e-005 4.65869e-005 -8.65517e-006
112
root  12.2759 40.5387 12.0973 161.952 74.0931 161.831
RightUpLeg  -2.1958 -20.5636 -15.8088
RightLeg  14.0983 -15.7682 -1.00245
RightFoot  -2.377 -0.360801 4.39314
RightToes  0.000481921 0.542163 -0.142578
Spine  15.4279 -0.688621 7.79216
Spine1  4.91405 2.976 -11.5805
HEad  9.02633 -2.63507 -0.875795
LeftShoulder1  5.10221 -10.6939 -29.8784
LeftArm  -3.78192 -23.173 -45.6871
LeftForeArm  -171.518 -52.1706 -168.384
LeftHand  -0.25398 0.0180481 5.50724
RightShoulder  2.39612 6.91741 16.3138
RightArm  -13.2835 18.9503 54.2575
RightForeArm  175.602 55.5358 165.908
RightHand  -0.149482 -0.494598 -3.48263
LeftUpLeg  -4.12422 4.38655 2.23116
LeftLeg  3.52607 5.47012 -3.92221
LeftFoot  4.68402 0.417416 -3.16844
LeftToes  1.06245e-005 4.65869e-005 -8.65517e-006
